HIERARCHY
ROOT pelvis
{
  OFFSET 0 100 0
  CHANNELS 6 Xposition Yposition Zposition Zrotation Xrotation Yrotation
  JOINT pelvis_right_femur
  {
    OFFSET -10.78128 -3.44521 -0.5502486
    CHANNELS 3 Zrotation Xrotation Yrotation
    JOINT right_femur_tibia
    {
      OFFSET -0.8047443 -44.0398 -0.1307829
      CHANNELS 3 Zrotation Xrotation Yrotation
      JOINT right_tibia_foot
      {
        OFFSET 3.006224 -47.83518 -5
        CHANNELS 3 Zrotation Xrotation Yrotation
        End Site
        {
          OFFSET 0 -5 15
        }
      }
    }
  }
  JOINT pelvis_left_femur
  {
    OFFSET 10.78128 -3.44521 -0.5502486
    CHANNELS 3 Zrotation Xrotation Yrotation
    JOINT left_femur_tibia
    {
      OFFSET 0.8047443 -44.0398 -0.1307829
      CHANNELS 3 Zrotation Xrotation Yrotation
      JOINT left_tibia_foot
      {
        OFFSET -4.370144 -48.10324 -4.275266
        CHANNELS 3 Zrotation Xrotation Yrotation
        End Site
        {
          OFFSET 0 -5 15
        }
      }
    }
  }
  JOINT pelvis_spine1
  {
    OFFSET 0 6.468898 -3.129235
    CHANNELS 3 Zrotation Xrotation Yrotation
    JOINT spine1
    {
      OFFSET 0 23.15396 4.99043
      CHANNELS 3 Zrotation Xrotation Yrotation
      JOINT spine2
      {
        OFFSET 0 20.79997 -5.064912
        CHANNELS 3 Zrotation Xrotation Yrotation
        JOINT neck
        {
          OFFSET 0 14.38658 9.616178
          CHANNELS 3 Zrotation Xrotation Yrotation
          End Site
          {
            OFFSET 0 20 0
          }
        }
      }
      JOINT right_manubrium
      {
        OFFSET -5.722621 16.35077 3.967754
        CHANNELS 3 Zrotation Xrotation Yrotation
        JOINT right_clavicle
        {
          OFFSET -13.16364 1.694482 -4.693211
          CHANNELS 3 Zrotation Xrotation Yrotation
          JOINT right_humerus
          {
            OFFSET -28.5034 -0.3100689 -2.792744
            CHANNELS 3 Zrotation Xrotation Yrotation
            JOINT right_radius
            {
              OFFSET -25.15693 0.02248979 -1.271978
              CHANNELS 3 Zrotation Xrotation Yrotation
              End Site
              {
                OFFSET -15 0 0
              }
            }
          }
        }
      }
      JOINT left_manubrium
      {
        OFFSET 5.722621 16.35077 3.967754
        CHANNELS 3 Zrotation Xrotation Yrotation
        JOINT left_clavicle
        {
          OFFSET 13.16364 1.694482 -4.693211
          CHANNELS 3 Zrotation Xrotation Yrotation
          JOINT left_humerus
          {
            OFFSET 29.39168 -1.063119 -2.237045
            CHANNELS 3 Zrotation Xrotation Yrotation
            JOINT left_radius
            {
              OFFSET 24.59957 -0.9528479 0.9047498
              CHANNELS 3 Zrotation Xrotation Yrotation
              End Site
              {
                OFFSET 15 -0 -0
              }
            }
          }
        }
      }
    }
  }
}
MOTION
Frames: 10
Frame Time: 0.0416666666667
29.77911 105.0404 229.0756 1.145207 -5.463245 0.8516689 1.628191 9.762374 6.232176 8.132511e-11 31.27422 4.471699e-10 5.553122 -10.86738 -1.854145 -2.589627 -16.53354 -8.514041 -5.709299e-10 19.64256 3.250552e-10 -6.654012 -11.39381 18.9028 -1.255721 -0.9405795 8.341252 -1.034343 8.894051 -3.185732 2.43346 21.04338 6.069181 1.847301 -17.63088 8.59496 2.138127 -20.90097 10.97265 80.61455 22.54 -7.364493 -6.333999e-11 -2.40103e-11 25.62319 -24.30739 13.31819 12.72449 5.231863 -14.99208 -1.348034 -93.98349 21.55503 25.46757 -6.810031e-11 -9.752176e-11 -9.87217 -2.393635 8.350024 14.71992
31.0433 105.346 235.3965 1.473431 -5.796867 1.021225 0.9067401 8.762208 6.254449 -2.990448e-10 38.08381 5.867677e-10 5.615468 -8.799742 -2.431384 -3.840654 -13.45103 -9.605139 -1.423453e-09 21.09062 1.46964e-09 -6.368161 -11.46492 18.60651 -1.616416 -1.25356 8.015984 -1.192335 8.856933 -3.249549 2.48529 21.27092 6.141596 1.865268 -17.49052 8.746443 2.414514 -20.07052 10.79612 81.1281 22.6805 -8.227193 -1.862993e-10 -1.632782e-10 24.28116 -23.86153 13.02768 12.18638 4.945463 -14.87528 -1.507744 -92.97076 22.12494 24.30525 -5.512204e-11 -1.156759e-10 -9.816031 -2.184632 8.559861 14.57676
32.2719 106.0563 241.4896 1.680944 -6.507124 1.454447 0.4275044 5.774378 6.179328 -4.001291e-10 45.73654 7.639566e-10 5.396772 -7.166506 -3.501043 -4.778597 -9.520795 -10.40296 -1.858481e-09 21.77405 1.515283e-09 -5.902973 -12.11735 18.24387 -1.954663 -1.131642 7.319876 -1.258552 8.936648 -3.572304 2.47489 21.67885 6.233863 1.782752 -17.20062 8.93294 2.712865 -19.15134 10.72217 82.25603 23.02719 -9.430928 -2.380361e-10 -1.940139e-10 22.72647 -23.38579 12.96641 11.63987 4.689832 -15.11505 -1.877059 -91.7128 22.78712 22.32803 -1.198913e-10 -1.243802e-10 -10.29755 -1.839048 8.792883 14.30558
33.40568 106.996 247.1216 1.639101 -7.28274 2.080894 0.3969961 1.28736 6.01842 -1.855229e-10 51.65635 6.733594e-10 4.604079 -6.713367 -4.731177 -5.138884 -5.145493 -10.90919 -1.47807e-09 21.44887 8.371277e-10 -5.366721 -12.91893 17.77101 -2.095247 -0.6862714 6.290895 -1.121172 9.033855 -4.122994 2.377199 22.09299 6.273018 1.598599 -16.84123 9.049756 3.010963 -18.2446 10.71965 83.38945 23.5983 -10.75423 -1.712157e-10 -8.731896e-11 21.01819 -22.46209 13.04835 10.9895 4.487941 -15.64021 -2.327384 -90.0776 23.45696 19.81971 -1.815565e-10 -1.055647e-10 -11.22606 -1.286036 9.155041 13.77403
34.41712 107.9583 252.3453 1.392898 -7.779368 2.823179 0.7614554 -4.134869 5.69321 2.745542e-10 54.30372 2.946528e-10 3.508079 -6.882933 -5.884905 -5.049519 -0.5533642 -11.16749 -6.711553e-10 20.25784 -1.240436e-10 -5.073829 -13.93842 17.07798 -2.015101 -0.1448195 5.130069 -0.8190598 9.025761 -4.785574 2.277987 22.42328 6.272838 1.377442 -16.56982 9.155393 3.15901 -17.39899 10.69837 84.64969 24.08419 -12.19725 -3.009423e-11 7.963591e-11 19.33002 -21.36485 13.20491 10.35592 4.484285 -16.34768 -2.724694 -88.52012 23.92294 17.1751 -2.236341e-10 -5.340341e-11 -12.51828 -0.6146172 9.591213 13.04988
35.31251 108.6674 257.3205 1.175718 -7.901276 3.622099 1.214504 -9.460316 5.216475 6.671636e-10 52.74776 -3.162279e-11 2.536433 -7.310629 -6.756457 -4.788632 3.446091 -11.22255 -4.619061e-11 18.03541 -1.021892e-09 -4.908375 -15.39186 16.53847 -1.920946 0.3494634 4.130358 -0.4602282 8.866393 -5.396272 2.236906 22.63717 6.260346 1.218655 -16.37247 9.243828 3.059265 -16.6701 10.60529 85.75504 24.34638 -13.5277 9.656997e-11 2.059344e-10 17.83571 -20.54345 13.30049 9.875601 4.821674 -17.1293 -2.981668 -87.16362 24.08625 14.51134 -2.431087e-10 -6.569318e-13 -14.14496 0.06380313 9.996048 12.17473
36.07473 108.932 262.1191 1.053192 -7.659842 4.400864 1.639909 -14.56569 4.688631 5.087875e-10 47.45516 1.351124e-11 1.676538 -7.922504 -7.344909 -4.551816 7.018171 -11.28864 5.815363e-11 15.63294 -8.175985e-10 -4.767751 -17.09677 16.16976 -1.894761 0.7380571 3.331567 -0.04635501 8.580582 -5.93787 2.253295 22.71718 6.22883 1.149286 -16.25482 9.293783 2.830768 -15.93506 10.44652 86.47808 24.54582 -14.83999 1.279955e-10 2.161246e-10 16.30711 -19.7232 13.25598 9.351338 5.419254 -17.93849 -3.105794 -85.77392 24.09314 11.77489 -2.114268e-10 2.539365e-11 -16.05931 0.7491469 10.40112 11.1603
36.73445 108.7153 267.1144 1.073127 -7.050253 5.126162 1.801022 -18.67384 3.907365 2.14579e-10 39.68858 1.404903e-10 1.162349 -8.307901 -7.78244 -4.455733 10.17629 -11.12675 -4.933395e-10 13.69058 -3.107636e-10 -4.966343 -18.8922 15.72387 -2.011595 0.8495695 2.798984 0.3210883 8.078231 -6.395822 2.372434 22.81252 6.164511 1.140786 -16.16234 9.348687 2.407448 -15.09286 10.15133 87.47083 24.61838 -16.23231 6.704346e-11 1.177176e-10 14.75562 -19.39237 13.22037 9.006804 6.239362 -18.73116 -2.988303 -84.7448 23.897 8.956513 -1.606631e-10 4.435627e-11 -18.1502 1.355168 10.70447 10.15585
37.2562 107.9788 272.1331 1.22876 -6.452797 5.739227 1.818296 -22.14166 3.201586 -4.135599e-10 31.14555 3.545571e-10 0.5326634 -9.037222 -8.060133 -4.501849 12.77029 -11.12167 -1.343369e-09 12.62875 1.221923e-09 -4.848959 -20.46456 15.6027 -2.260391 0.9150347 2.432815 0.6906977 7.633088 -6.793212 2.468056 22.91955 6.085071 1.208237 -16.07558 9.305381 2.082226 -14.23991 9.909932 88.05124 24.93943 -17.60538 -8.673144e-11 -6.767474e-11 13.02785 -18.8477 13.01153 8.490081 7.044859 -19.54845 -2.857282 -83.51727 23.74436 6.089696 -5.966204e-11 2.255808e-11 -20.32732 2.051934 11.09707 9.024935
37.64425 106.8831 277.2222 1.313354 -5.874522 6.200459 1.836376 -24.60967 2.517854 -8.224872e-10 23.68176 3.719091e-10 -0.2693158 -9.84703 -8.222441 -4.522211 14.96408 -11.11165 -1.923449e-09 12.68382 2.450705e-09 -4.803638 -21.38865 15.41493 -2.433919 0.8482409 2.121606 1.008162 7.188157 -7.111882 2.542631 23.0739 5.968004 1.274597 -16.01592 9.204354 1.813695 -13.39504 9.679618 88.53109 25.31453 -18.83541 -2.019294e-10 -1.946514e-10 11.26928 -18.20183 12.70015 7.927778 7.679713 -20.24849 -2.670161 -82.3788 23.61041 3.514284 5.165588e-11 -4.319667e-12 -22.19391 2.824197 11.56328 7.873572
